<svg xmlns="http://www.w3.org/2000/svg" viewBox="0 0 2500 2500"><path d="M2500 2083.33V416.667C2500 187.5 2312.5 0 2083.33 0H416.667C187.5 0 0 187.5 0 416.667V2083.33C0 2312.5 187.5 2500 416.667 2500H2083.33C2312.5 2500 2500 2312.5 2500 2083.33z" fill="#FF6A00"/><path d="M1250 1875c-345.833 0-625-279.167-625-625s279.167-625 625-625 625 279.167 625 625-279.167 625-625 625zm0-1041.67c-229.167 0-416.667 187.5-416.667 416.667S1020.83 1666.67 1250 1666.67s416.667-187.5 416.667-416.667S1479.17 833.333 1250 833.333z" fill="#FFF"/><path d="M1250 1458.33c-114.583 0-208.333-93.75-208.333-208.333s93.75-208.333 208.333-208.333 208.333 93.75 208.333 208.333-93.75 208.333-208.333 208.333z" fill="#FFF"/></svg>