<svg xmlns="http://www.w3.org/2000/svg" viewBox="0 0 96 96"><defs><linearGradient id="a" x1="-1032.17" x2="-1059.21" y1="145.31" y2="65.43" gradientTransform="matrix(1 0 0 -1 1075 158)" gradientUnits="userSpaceOnUse"><stop offset="0" stop-color="#114a8b"/><stop offset="1" stop-color="#0669bc"/></linearGradient><linearGradient id="b" x1="-1023.73" x2="-1029.98" y1="108.08" y2="105.97" gradientTransform="matrix(1 0 0 -1 1075 158)" gradientUnits="userSpaceOnUse"><stop offset="0" stop-opacity=".3"/><stop offset=".07" stop-opacity=".2"/><stop offset=".32" stop-opacity=".1"/><stop offset=".62" stop-opacity=".05"/><stop offset="1" stop-opacity="0"/></linearGradient><linearGradient id="c" x1="-1027.16" x2="-997.48" y1="147.64" y2="68.56" gradientTransform="matrix(1 0 0 -1 1075 158)" gradientUnits="userSpaceOnUse"><stop offset="0" stop-color="#3ccbf4"/><stop offset="1" stop-color="#2892df"/></linearGradient></defs><path fill="url(#a)" d="M33.34 6.54h26.04l-27.03 80.1a4.15 4.15 0 0 1-3.94 2.81H8.15a4.14 4.14 0 0 1-3.93-5.47L29.41 9.35a4.15 4.15 0 0 1 3.93-2.81z"/><path fill="#0078d4" d="M71.17 60.26H29.88a1.91 1.91 0 0 0-1.3 3.31l26.53 24.76a4.17 4.17 0 0 0 2.85 1.13h23.38z"/><path fill="url(#b)" d="M33.34 6.54a4.12 4.12 0 0 0-3.93 2.81L4.22 83.98a4.14 4.14 0 0 0 3.93 5.47h20.26a4.15 4.15 0 0 0 3.94-2.81l5.02-14.86 17.77 16.67a4.17 4.17 0 0 0 2.85 1.13h23.38l-10.33-29.32H52.5l15.09-44.98z"/><path fill="url(#c)" d="M66.6 9.35a4.14 4.14 0 0 0-3.93-2.81H33.34a4.12 4.12 0 0 1 3.93 2.81l25.19 74.63a4.14 4.14 0 0 1-3.93 5.47h29.33a4.14 4.14 0 0 0 3.93-5.47z"/></svg>